<?xml version="1.0"?>
<svg xmlns="http://www.w3.org/2000/svg" viewBox="0 0 64 64" width="512" height="512"><g id="Book-image-camera"><path d="M36,43V41a6.006,6.006,0,0,0-6,6h2A4,4,0,0,1,36,43Z"/><rect x="45" y="38" width="5" height="2"/><path d="M61,8H58V5a1,1,0,0,0-1-1H36a4.982,4.982,0,0,0-4,2.031A4.982,4.982,0,0,0,28,4H7A1,1,0,0,0,6,5V8H3A1,1,0,0,0,2,9V49a1,1,0,0,0,1,1H18v7a3,3,0,0,0,3,3H51a3,3,0,0,0,3-3V50h7a1,1,0,0,0,1-1V9A1,1,0,0,0,61,8ZM36,6H56V44H54V37a3,3,0,0,0-3-3H43.82l-.84-4.2A1,1,0,0,0,42,29H33V9A3,3,0,0,1,36,6ZM52,50H44.475a8.834,8.834,0,0,0,0-6H52ZM27.525,50H20V44h7.525a8.834,8.834,0,0,0,0,6ZM36,40a7,7,0,1,1-7,7A7.008,7.008,0,0,1,36,40Zm7.478,2a8.99,8.99,0,0,0-14.956,0H20V37a1,1,0,0,1,1-1H51a1,1,0,0,1,1,1v5ZM25,34H22V33h3Zm16.18-3,.6,3H30.22l.6-3ZM8,6H28a3,3,0,0,1,3,3V29H30a1,1,0,0,0-.98.8L28.18,34H27V32a1,1,0,0,0-1-1H21a1,1,0,0,0-1,1v2.184A3,3,0,0,0,18,37v7H8ZM4,48V10H6V45a1,1,0,0,0,1,1H18v2ZM51,58H21a1,1,0,0,1-1-1V52h8.522a8.99,8.99,0,0,0,14.956,0H52v5A1,1,0,0,1,51,58Zm9-10H54V46h3a1,1,0,0,0,1-1V10h2Z"/><path d="M27,23a1,1,0,0,0,1-1V10a1,1,0,0,0-1-1H12a1,1,0,0,0-1,1V22a1,1,0,0,0,1,1ZM13,21v-.519l3.926-3.141,2.367,2.367,1.414-1.414L20.414,18,23,15.414l3,3V21ZM26,11v4.586l-2.293-2.293a1,1,0,0,0-1.414,0L19,16.586l-1.293-1.293a1,1,0,0,0-1.332-.074L13,17.919V11Z"/><path d="M37,23H52a1,1,0,0,0,1-1V10a1,1,0,0,0-1-1H37a1,1,0,0,0-1,1V22A1,1,0,0,0,37,23Zm1-12H51V21H38Z"/></g></svg>
