<svg height="512" viewBox="0 0 64 64" width="512" xmlns="http://www.w3.org/2000/svg"><path d="m3 9h58v40h-58z" fill="#64c37d"/><path d="m57 5v40h-21a4 4 0 0 0 -4 4v-40a4 4 0 0 1 4-4z" fill="#ffdaaa"/><path d="m32 9v40a4 4 0 0 0 -4-4h-21v-40h21a4 4 0 0 1 4 4z" fill="#ffb655"/><path d="m37 10h15v12h-15z" fill="#00b6bd"/><g fill="#898890"><path d="m21 32h5v3h-5z"/><path d="m42 30 1 5h-14l1-5h2z"/><path d="m19 43h34v8h-34z"/></g><path d="m53 37v6h-34v-6a2.006 2.006 0 0 1 2-2h30a2.006 2.006 0 0 1 2 2z" fill="#c6c5ca"/><path d="m53 51v6a2.006 2.006 0 0 1 -2 2h-30a2.006 2.006 0 0 1 -2-2v-6z" fill="#c6c5ca"/><path d="m19 18 4-4 4 4v4h-15v-2l5-4z" fill="#64c37d"/><path d="m27 10v8l-4-4-4 4-2-2-5 4v-10z" fill="#96c8ef"/><circle cx="36" cy="47" fill="#bdfdff" r="8"/><path d="m36 43v-2a6.006 6.006 0 0 0 -6 6h2a4 4 0 0 1 4-4z"/><path d="m45 38h5v2h-5z"/><path d="m61 8h-3v-3a1 1 0 0 0 -1-1h-21a4.982 4.982 0 0 0 -4 2.031 4.982 4.982 0 0 0 -4-2.031h-21a1 1 0 0 0 -1 1v3h-3a1 1 0 0 0 -1 1v40a1 1 0 0 0 1 1h15v7a3 3 0 0 0 3 3h30a3 3 0 0 0 3-3v-7h7a1 1 0 0 0 1-1v-40a1 1 0 0 0 -1-1zm-25-2h20v38h-2v-7a3 3 0 0 0 -3-3h-7.18l-.84-4.2a1 1 0 0 0 -.98-.8h-9v-20a3 3 0 0 1 3-3zm16 44h-7.525a8.834 8.834 0 0 0 0-6h7.525zm-24.475 0h-7.525v-6h7.525a8.834 8.834 0 0 0 0 6zm8.475-10a7 7 0 1 1 -7 7 7.008 7.008 0 0 1 7-7zm7.478 2a8.99 8.99 0 0 0 -14.956 0h-8.522v-5a1 1 0 0 1 1-1h30a1 1 0 0 1 1 1v5zm-18.478-8h-3v-1h3zm16.18-3 .6 3h-11.56l.6-3zm-33.18-25h20a3 3 0 0 1 3 3v20h-1a1 1 0 0 0 -.98.8l-.84 4.2h-1.18v-2a1 1 0 0 0 -1-1h-5a1 1 0 0 0 -1 1v2.184a3 3 0 0 0 -2 2.816v7h-10zm-4 42v-38h2v35a1 1 0 0 0 1 1h11v2zm47 10h-30a1 1 0 0 1 -1-1v-5h8.522a8.99 8.99 0 0 0 14.956 0h8.522v5a1 1 0 0 1 -1 1zm9-10h-6v-2h3a1 1 0 0 0 1-1v-35h2z"/><path d="m27 23a1 1 0 0 0 1-1v-12a1 1 0 0 0 -1-1h-15a1 1 0 0 0 -1 1v12a1 1 0 0 0 1 1zm-14-2v-.519l3.926-3.141 2.367 2.367 1.414-1.414-.293-.293 2.586-2.586 3 3v2.586zm13-10v4.586l-2.293-2.293a1 1 0 0 0 -1.414 0l-3.293 3.293-1.293-1.293a1 1 0 0 0 -1.332-.074l-3.375 2.7v-6.919z"/><path d="m37 23h15a1 1 0 0 0 1-1v-12a1 1 0 0 0 -1-1h-15a1 1 0 0 0 -1 1v12a1 1 0 0 0 1 1zm1-12h13v10h-13z"/></svg>